<svg width="1280" height="700" viewBox="0 0 1280 700" fill="none" xmlns="http://www.w3.org/2000/svg">
<rect width="1280" height="700" fill="#F0EDED"/>
<path d="M610 260.5C610 266.733 607.735 272.71 603.703 277.117C599.671 281.524 594.202 284 588.5 284C582.798 284 577.329 281.524 573.297 277.117C569.265 272.71 567 266.733 567 260.5C567 254.267 569.265 248.29 573.297 243.883C577.329 239.476 582.798 237 588.5 237C594.202 237 599.671 239.476 603.703 243.883C607.735 248.29 610 254.267 610 260.5V260.5Z" fill="#C1BABA"/>
<path d="M543.312 206C537.395 206 531.72 208.463 527.535 212.846C523.351 217.23 521 223.176 521 229.375V369.625C521 375.824 523.351 381.77 527.535 386.154C531.72 390.537 537.395 393 543.312 393H736.688C742.605 393 748.28 390.537 752.465 386.154C756.649 381.77 759 375.824 759 369.625V229.375C759 223.176 756.649 217.23 752.465 212.846C748.28 208.463 742.605 206 736.688 206H543.312ZM736.688 221.583C738.66 221.583 740.552 222.404 741.947 223.865C743.341 225.327 744.125 227.309 744.125 229.375V322.875L687.972 292.534C686.577 291.802 684.998 291.548 683.457 291.808C681.917 292.068 680.494 292.829 679.389 293.983L624.203 351.798L584.635 324.184C583.207 323.188 581.493 322.739 579.785 322.916C578.077 323.092 576.48 323.881 575.264 325.15L535.905 361.833V370.248C535.887 370.041 535.877 369.833 535.875 369.625V229.375C535.875 227.309 536.659 225.327 538.053 223.865C539.448 222.404 541.34 221.583 543.312 221.583H736.688Z" fill="#C1BABA"/>
<path d="M552.156 481.632V486H530.472V449.964H535.516V481.632H552.156ZM580.383 472.48C580.383 474.629 580.071 476.571 579.447 478.304C578.823 480.037 577.939 481.528 576.795 482.776C575.686 484.024 574.351 484.995 572.791 485.688C571.231 486.347 569.533 486.676 567.695 486.676C565.858 486.676 564.159 486.347 562.599 485.688C561.039 484.995 559.687 484.024 558.543 482.776C557.434 481.528 556.567 480.037 555.943 478.304C555.319 476.571 555.007 474.629 555.007 472.48C555.007 470.365 555.319 468.441 555.943 466.708C556.567 464.94 557.434 463.432 558.543 462.184C559.687 460.936 561.039 459.983 562.599 459.324C564.159 458.631 565.858 458.284 567.695 458.284C569.533 458.284 571.231 458.631 572.791 459.324C574.351 459.983 575.686 460.936 576.795 462.184C577.939 463.432 578.823 464.94 579.447 466.708C580.071 468.441 580.383 470.365 580.383 472.48ZM575.339 472.48C575.339 469.429 574.646 467.02 573.259 465.252C571.907 463.449 570.053 462.548 567.695 462.548C565.338 462.548 563.466 463.449 562.079 465.252C560.727 467.02 560.051 469.429 560.051 472.48C560.051 475.531 560.727 477.957 562.079 479.76C563.466 481.528 565.338 482.412 567.695 482.412C570.053 482.412 571.907 481.528 573.259 479.76C574.646 477.957 575.339 475.531 575.339 472.48ZM596.339 482.516C597.483 482.516 598.489 482.499 599.355 482.464C600.257 482.395 601.002 482.291 601.591 482.152V474.092C601.245 473.919 600.673 473.78 599.875 473.676C599.113 473.537 598.177 473.468 597.067 473.468C596.339 473.468 595.559 473.52 594.727 473.624C593.93 473.728 593.185 473.953 592.491 474.3C591.833 474.612 591.278 475.063 590.827 475.652C590.377 476.207 590.151 476.952 590.151 477.888C590.151 479.621 590.706 480.835 591.815 481.528C592.925 482.187 594.433 482.516 596.339 482.516ZM595.923 458.284C597.865 458.284 599.494 458.544 600.811 459.064C602.163 459.549 603.238 460.26 604.035 461.196C604.867 462.097 605.457 463.189 605.803 464.472C606.15 465.72 606.323 467.107 606.323 468.632V485.532C605.907 485.601 605.318 485.705 604.555 485.844C603.827 485.948 602.995 486.052 602.059 486.156C601.123 486.26 600.101 486.347 598.991 486.416C597.917 486.52 596.842 486.572 595.767 486.572C594.242 486.572 592.838 486.416 591.555 486.104C590.273 485.792 589.163 485.307 588.227 484.648C587.291 483.955 586.563 483.053 586.043 481.944C585.523 480.835 585.263 479.5 585.263 477.94C585.263 476.449 585.558 475.167 586.147 474.092C586.771 473.017 587.603 472.151 588.643 471.492C589.683 470.833 590.897 470.348 592.283 470.036C593.67 469.724 595.126 469.568 596.651 469.568C597.137 469.568 597.639 469.603 598.159 469.672C598.679 469.707 599.165 469.776 599.615 469.88C600.101 469.949 600.517 470.019 600.863 470.088C601.21 470.157 601.453 470.209 601.591 470.244V468.892C601.591 468.095 601.505 467.315 601.331 466.552C601.158 465.755 600.846 465.061 600.395 464.472C599.945 463.848 599.321 463.363 598.523 463.016C597.761 462.635 596.755 462.444 595.507 462.444C593.913 462.444 592.509 462.565 591.295 462.808C590.117 463.016 589.233 463.241 588.643 463.484L588.071 459.48C588.695 459.203 589.735 458.943 591.191 458.7C592.647 458.423 594.225 458.284 595.923 458.284ZM631.827 464.68C631.238 464.195 630.389 463.727 629.279 463.276C628.17 462.825 626.957 462.6 625.639 462.6C624.253 462.6 623.057 462.86 622.051 463.38C621.081 463.865 620.283 464.559 619.659 465.46C619.035 466.327 618.585 467.367 618.307 468.58C618.03 469.793 617.891 471.093 617.891 472.48C617.891 475.635 618.671 478.079 620.231 479.812C621.791 481.511 623.871 482.36 626.471 482.36C627.789 482.36 628.881 482.308 629.747 482.204C630.649 482.065 631.342 481.927 631.827 481.788V464.68ZM631.827 446.48L636.663 445.648V485.22C635.554 485.532 634.133 485.844 632.399 486.156C630.666 486.468 628.673 486.624 626.419 486.624C624.339 486.624 622.467 486.295 620.803 485.636C619.139 484.977 617.718 484.041 616.539 482.828C615.361 481.615 614.442 480.141 613.783 478.408C613.159 476.64 612.847 474.664 612.847 472.48C612.847 470.4 613.107 468.493 613.627 466.76C614.182 465.027 614.979 463.536 616.019 462.288C617.059 461.04 618.325 460.069 619.815 459.376C621.341 458.683 623.074 458.336 625.015 458.336C626.575 458.336 627.945 458.544 629.123 458.96C630.337 459.376 631.238 459.775 631.827 460.156V446.48ZM649.812 486H644.976V458.96H649.812V486ZM647.368 454.072C646.502 454.072 645.756 453.795 645.132 453.24C644.543 452.651 644.248 451.871 644.248 450.9C644.248 449.929 644.543 449.167 645.132 448.612C645.756 448.023 646.502 447.728 647.368 447.728C648.235 447.728 648.963 448.023 649.552 448.612C650.176 449.167 650.488 449.929 650.488 450.9C650.488 451.871 650.176 452.651 649.552 453.24C648.963 453.795 648.235 454.072 647.368 454.072ZM658.129 459.74C659.238 459.463 660.711 459.168 662.549 458.856C664.386 458.544 666.501 458.388 668.893 458.388C671.042 458.388 672.827 458.7 674.249 459.324C675.67 459.913 676.797 460.763 677.629 461.872C678.495 462.947 679.102 464.247 679.449 465.772C679.795 467.297 679.969 468.979 679.969 470.816V486H675.133V471.856C675.133 470.192 675.011 468.771 674.769 467.592C674.561 466.413 674.197 465.46 673.677 464.732C673.157 464.004 672.463 463.484 671.597 463.172C670.73 462.825 669.655 462.652 668.373 462.652C667.853 462.652 667.315 462.669 666.761 462.704C666.206 462.739 665.669 462.791 665.149 462.86C664.663 462.895 664.213 462.947 663.797 463.016C663.415 463.085 663.138 463.137 662.965 463.172V486H658.129V459.74ZM704.94 483.296C704.524 483.573 703.709 483.937 702.496 484.388C701.317 484.804 699.931 485.012 698.336 485.012C696.707 485.012 695.164 484.752 693.708 484.232C692.287 483.712 691.039 482.915 689.964 481.84C688.889 480.731 688.04 479.361 687.416 477.732C686.792 476.103 686.48 474.161 686.48 471.908C686.48 469.932 686.775 468.129 687.364 466.5C687.953 464.836 688.803 463.415 689.912 462.236C691.056 461.023 692.443 460.087 694.072 459.428C695.701 458.735 697.539 458.388 699.584 458.388C701.837 458.388 703.796 458.561 705.46 458.908C707.159 459.22 708.58 459.515 709.724 459.792V483.92C709.724 488.08 708.649 491.096 706.5 492.968C704.351 494.84 701.092 495.776 696.724 495.776C695.025 495.776 693.413 495.637 691.888 495.36C690.397 495.083 689.097 494.753 687.988 494.372L688.872 490.16C689.843 490.541 691.021 490.871 692.408 491.148C693.829 491.46 695.303 491.616 696.828 491.616C699.705 491.616 701.768 491.044 703.016 489.9C704.299 488.756 704.94 486.936 704.94 484.44V483.296ZM704.888 463.224C704.403 463.085 703.744 462.964 702.912 462.86C702.115 462.721 701.023 462.652 699.636 462.652C697.036 462.652 695.025 463.501 693.604 465.2C692.217 466.899 691.524 469.152 691.524 471.96C691.524 473.52 691.715 474.855 692.096 475.964C692.512 477.073 693.049 477.992 693.708 478.72C694.401 479.448 695.181 479.985 696.048 480.332C696.949 480.679 697.868 480.852 698.804 480.852C700.087 480.852 701.265 480.679 702.34 480.332C703.415 479.951 704.264 479.517 704.888 479.032V463.224ZM723.771 483.192C723.771 484.128 723.459 484.943 722.835 485.636C722.211 486.329 721.361 486.676 720.287 486.676C719.212 486.676 718.363 486.329 717.739 485.636C717.115 484.943 716.803 484.128 716.803 483.192C716.803 482.256 717.115 481.441 717.739 480.748C718.363 480.055 719.212 479.708 720.287 479.708C721.361 479.708 722.211 480.055 722.835 480.748C723.459 481.441 723.771 482.256 723.771 483.192ZM736.568 483.192C736.568 484.128 736.256 484.943 735.632 485.636C735.008 486.329 734.158 486.676 733.084 486.676C732.009 486.676 731.16 486.329 730.536 485.636C729.912 484.943 729.6 484.128 729.6 483.192C729.6 482.256 729.912 481.441 730.536 480.748C731.16 480.055 732.009 479.708 733.084 479.708C734.158 479.708 735.008 480.055 735.632 480.748C736.256 481.441 736.568 482.256 736.568 483.192ZM749.364 483.192C749.364 484.128 749.052 484.943 748.428 485.636C747.804 486.329 746.955 486.676 745.88 486.676C744.806 486.676 743.956 486.329 743.332 485.636C742.708 484.943 742.396 484.128 742.396 483.192C742.396 482.256 742.708 481.441 743.332 480.748C743.956 480.055 744.806 479.708 745.88 479.708C746.955 479.708 747.804 480.055 748.428 480.748C749.052 481.441 749.364 482.256 749.364 483.192Z" fill="#C1BABA"/>
</svg>